<?xml version="1.0" encoding="utf-8"?>
<!-- Generator: Adobe Illustrator 16.0.0, SVG Export Plug-In . SVG Version: 6.00 Build 0)  -->
<!DOCTYPE svg PUBLIC "-//W3C//DTD SVG 1.1//EN" "http://www.w3.org/Graphics/SVG/1.1/DTD/svg11.dtd">
<svg version="1.1" id="Layer_1" xmlns="http://www.w3.org/2000/svg" xmlns:xlink="http://www.w3.org/1999/xlink" x="0px" y="0px"
	 width="300px" height="480px" viewBox="-100 -160 300 480" enable-background="new -100 -160 300 480" xml:space="preserve">
<g id="Layer_1_1_" display="none">
	<g display="inline">
		<path fill="none" d="M3.954,16.608"/>
		<g>
			<path fill="none" stroke="#000000" stroke-width="3" stroke-miterlimit="10" d="M44.121,28.253
				c2.068,3.616,3.338,8.418,3.338,12.891c0,12.684-10.281,22.965-22.964,22.965S1.531,53.828,1.531,41.145
				c0-4.139,1.351-9.216,3.214-12.6c4.75-8.625,12.125-19,17.322-25.781c0.566-0.738,1.426-1.25,2.428-1.25
				c0.743,0,1.483,0.212,1.938,0.729C31.723,8.233,40.83,22.503,44.121,28.253z"/>
		</g>
		<circle cx="24.495" cy="41.145" r="18.964"/>
		<circle fill="#FFFFFF" cx="24.495" cy="41.145" r="10.464"/>
	</g>
</g>
<g id="Layer_2">
	<path fill="#FFFFFF" stroke="#000000" stroke-width="16" stroke-miterlimit="10" d="M135.469,68.007l0.008-0.002l-0.155-0.125
		c-0.848-0.707-1.723-1.376-2.593-2.058L-52.941-81.835c-3.267-3.052-7.639-4.933-12.458-4.933c-10.087,0-18.267,8.18-18.267,18.267
		v239.265c0,73.817,59.844,133.664,133.667,133.664c73.82,0,133.667-59.847,133.667-133.664
		C183.664,129.451,164.914,92.525,135.469,68.007z M49.997,265.706c-52.438,0-94.946-42.507-94.946-94.942
		c0-52.438,42.508-94.951,94.946-94.951c52.437,0,94.946,42.51,94.946,94.945C144.943,223.199,102.434,265.706,49.997,265.706z"/>
</g>
<g id="Layer_2_copy" display="none">
	<path display="inline" fill="#FFFFFF" d="M137.999,64.429l0.01-0.003l-0.16-0.127c-0.872-0.726-1.774-1.416-2.669-2.118
		L-55.982-89.838c-3.361-3.143-7.864-5.082-12.826-5.082c-10.386,0-18.808,8.424-18.808,18.806v246.337
		c0,76.005,61.612,137.612,137.618,137.612c76.003,0,137.618-61.613,137.618-137.612C187.618,127.694,168.313,89.677,137.999,64.429
		z M50,267.977c-53.987,0-97.753-43.76-97.753-97.753c0-53.986,43.766-97.751,97.753-97.751s97.756,43.765,97.756,97.751
		C147.756,224.217,103.987,267.977,50,267.977z"/>
	<path display="inline" d="M50,315.06c-79.86,0-144.833-64.97-144.833-144.836V-76.113c0-14.349,11.675-26.024,26.025-26.024
		c6.498,0,12.71,2.416,17.524,6.813L140.233,56.969c0.754,0.591,1.508,1.182,2.241,1.793l9.931,8.292l-0.566,0.197
		c27.461,27.135,42.994,64.019,42.994,102.972C194.836,250.09,129.863,315.06,50,315.06z M-68.811-87.7
		c-6.39,0-11.588,5.198-11.588,11.591v246.333c0,71.9,58.496,130.397,130.399,130.397s130.4-58.497,130.4-130.397
		c0-38.82-17.14-75.363-47.019-100.244l-0.514-0.426c-0.5-0.41-1.009-0.809-1.521-1.202l-0.624-0.491L-60.911-84.563
		C-63.077-86.587-65.88-87.7-68.811-87.7z"/>
</g>
</svg>
