<?xml version="1.0" encoding="utf-8"?>
<!-- Generator: Adobe Illustrator 16.0.0, SVG Export Plug-In . SVG Version: 6.00 Build 0)  -->
<!DOCTYPE svg PUBLIC "-//W3C//DTD SVG 1.1//EN" "http://www.w3.org/Graphics/SVG/1.1/DTD/svg11.dtd">
<svg version="1.1" id="Layer_1" xmlns="http://www.w3.org/2000/svg" xmlns:xlink="http://www.w3.org/1999/xlink" x="0px" y="0px"
	 width="49px" height="65.641px" viewBox="0 0 49 65.641" enable-background="new 0 0 49 65.641" xml:space="preserve">
<g>
	<path fill="none" d="M3.954,16.608"/>
	<g>
		<path fill="none" stroke="#000000" stroke-width="3" stroke-miterlimit="10" d="M44.121,28.253
			c2.068,3.616,3.338,8.418,3.338,12.891c0,12.683-10.281,22.965-22.964,22.965S1.531,53.827,1.531,41.145
			c0-4.139,1.351-9.216,3.214-12.6c4.75-8.625,12.125-19,17.322-25.781c0.566-0.738,1.426-1.25,2.428-1.25
			c0.744,0,1.483,0.212,1.939,0.729C31.723,8.233,40.83,22.503,44.121,28.253z"/>
	</g>
	<circle cx="24.495" cy="41.145" r="18.964"/>
	<circle fill="#FFFFFF" cx="24.495" cy="41.145" r="10.464"/>
</g>
</svg>
