<?xml version="1.0" encoding="utf-8"?>
<!-- Generator: Adobe Illustrator 16.0.2, SVG Export Plug-In . SVG Version: 6.00 Build 0)  -->
<!DOCTYPE svg PUBLIC "-//W3C//DTD SVG 1.1 Tiny//EN" "http://www.w3.org/Graphics/SVG/1.1/DTD/svg11-tiny.dtd">
<svg version="1.1" baseProfile="tiny"
	 id="svg6292" sodipodi:modified="true" inkscape:version="0.45" sodipodi:version="0.32" xmlns:dc="http://purl.org/dc/elements/1.1/" xmlns:cc="http://web.resource.org/cc/" xmlns:rdf="http://www.w3.org/1999/02/22-rdf-syntax-ns#" xmlns:svg="http://www.w3.org/2000/svg" xmlns:sodipodi="http://sodipodi.sourceforge.net/DTD/sodipodi-0.dtd" xmlns:inkscape="http://www.inkscape.org/namespaces/inkscape"
	 xmlns="http://www.w3.org/2000/svg" xmlns:xlink="http://www.w3.org/1999/xlink" x="0px" y="0px" width="53.24219px"
	 height="54.02539px" viewBox="0.00024 -0.00024 53.24219 54.02539" xml:space="preserve">
<sodipodi:namedview  id="base" inkscape:window-y="0" inkscape:window-x="686" inkscape:window-height="572" inkscape:window-width="748" inkscape:current-layer="layer1" inkscape:document-units="px" inkscape:pageshadow="2" inkscape:pageopacity="0.0" objecttolerance="10" guidetolerance="10" gridtolerance="10000" borderopacity="1.0" inkscape:cy="27.012325" bordercolor="#666666" inkscape:cx="26.621256" pagecolor="#ffffff" inkscape:zoom="6.9968052">
	</sodipodi:namedview>
<g id="g1682" transform="translate(-2.059937,-1.667557)">
	<path id="path1556" sodipodi:nodetypes="ccccccc" fill-opacity="0.125" d="M31.55237,4.18195
		c-0.08594-0.0957,6.19727,4.82227,6.19727,4.82227s5.25,34.2334,5.16406,34.2334s-26.76855,7.61816-26.76855,7.61816
		C9.68909,52.013,8.91467,46.03448,8.7428,45.06964c-0.08594-0.28906-4.39063-32.78711-4.38965-32.97949
		C4.52502,11.12531,31.63831,4.27863,31.55237,4.18195z"/>
	
		<path id="path1574" sodipodi:type="arc" sodipodi:cx="318.75" sodipodi:cy="301.78571" sodipodi:rx="233.03571" sodipodi:ry="233.03571" fill-opacity="0.125" d="
		M54.32483,42.43195c0,6.87793-5.57617,12.45313-12.4541,12.45313s-12.4541-5.5752-12.4541-12.45313
		c0-6.87891,5.57617-12.4541,12.4541-12.4541S54.32483,35.55304,54.32483,42.43195z"/>
</g>
<g id="g1724" transform="translate(-1.081963,-0.860825)">
	<path id="path1725" sodipodi:nodetypes="ccccccc" fill-opacity="0.125" d="M31.55194,4.18286
		c-0.08594-0.09668,6.19727,4.82129,6.19727,4.82129s5.25098,34.2334,5.16504,34.2334s-26.76953,7.61816-26.76953,7.61816
		c-6.45508,1.15723-7.23047-4.82129-7.40234-5.78613c-0.08594-0.28906-4.38965-32.78711-4.38965-32.97949
		C4.5246,11.12524,31.63788,4.27856,31.55194,4.18286z"/>
	
		<path id="path1731" sodipodi:type="arc" sodipodi:cx="318.75" sodipodi:cy="301.78571" sodipodi:rx="233.03571" sodipodi:ry="233.03571" fill-opacity="0.125" d="
		M54.3244,42.43188c0,6.87793-5.57617,12.4541-12.4541,12.4541s-12.4541-5.57617-12.4541-12.4541
		c0-6.87891,5.57617-12.4541,12.4541-12.4541S54.3244,35.55298,54.3244,42.43188z"/>
</g>
<g id="g1692" transform="translate(-203.0237,9.991875)">
	<g id="g1693" transform="matrix(0.898939,0,0,0.898939,231.3745,35.08179)">
		<g id="g1694" transform="matrix(0.226616,0,0,0.226616,254.0524,324.7195)">
			
				<path id="path1695" sodipodi:nodetypes="ccccccccc" fill="#1B2BAB" stroke="#273584" stroke-width="2" stroke-linejoin="round" d="
				M-1122.57996-1650.01563c-0.42188-0.47461-127.17932,32.19031-127.6012,32.66003
				c-16.47632,6.15527,7.18115,30.77136,30.84326,23.67175c4.65002-1.42371,127.17932-32.66492,127.17932-32.66492
				s25.77625,168.04639,25.35437,168.04639s-131.40747,37.39648-131.40747,37.39648
				c-31.68689,5.68054-35.49316-23.66699-36.33691-28.39844c-0.42188-1.42383-21.5481-160.95166-21.5481-161.896
				C-1255.25293-1615.93176-1122.15808-1649.5459-1122.57996-1650.01563z"/>
			<path id="path1696" sodipodi:nodetypes="ccccc" fill="#FFFF8E" d="M-1123.02576-1650.15466
				c0.42175,0.47461,28.30725,19.41003,27.8855,19.41003c-0.42188,0-122.95605,32.18555-125.91382,32.66016
				c-22.39661,6.15515-34.2229-13.72949-31.69177-16.09277C-1248.09583-1615.12646-1122.604-1650.15466-1123.02576-1650.15466z"/>
		</g>
		<g id="g1699" transform="matrix(0.285025,1.188954e-2,-6.476187e-3,0.284631,239.7883,280.0725)">
			
				<path id="path1700" sodipodi:nodetypes="ccccccccccccc" fill="#FFFF8E" fill-opacity="0.53658" stroke="#FEBF00" stroke-width="2" stroke-linecap="round" stroke-linejoin="round" stroke-opacity="0.81707" d="
				M-896.16193-1068.08264c1.05286,6.24597,3.7854,20.66199,3.83374,20.94617c0.0484,0.28418-17.8692,5.31128-21.78821,6.78406
				c-8.6203,2.73413-5.35962,14.72729,1.96826,11.6427c6.25763-1.70801,21.49615-6.72229,21.78442-6.78394
				c0.28436-0.06531,6.89929,39.11536,8.00232,43.87836c1.38977,10.00275,14.62659,7.30859,12.99701-2.34442
				c-1.29468-7.66327-6.90137-40.88245-7.42969-44.00525c3.72748-0.84277,12.00317-4.15027,20.65833-6.85901
				c7.42255-4.28711,5.94312-15.21741-2.74054-12.25171c-5.74731,1.69043-19.54767,5.91956-19.7392,6.54968
				c-0.19141,0.63391-3.83368-20.94238-4.1181-20.88086C-884.2702-1080.49133-897.60175-1076.59863-896.16193-1068.08264z"/>
			<path id="path1704_1_" fill="#FFFF8E" fill-opacity="0.53725" d="M-852.28644-1051.37781
				c-0.85272-3.30774-1.37323-2.90051-1.04047-2.68164c0.32886,0.21521-0.28333,5.31323-3.07141,6.23499
				c-2.79193,0.91821-20.05243,6.85278-22.74933,6.58765c-2.69305-0.26538-3.21521-1.60608-2.83801-1.11047
				c0.38104,0.49939,0.85486,1.55969,1.28198,4.08752c0.42334,2.52808,7.39746,42.08307,7.11475,43.89636
				c-0.28278,1.81329,1.09039,4.71387-4.2074,8.24048c6.10052-2.25098,7.04492-3.63013,6.47498-8.75122
				c-0.56989-5.12109-7.20752-44.46118-6.8786-44.24207"/>
		</g>
	</g>
	<g id="g1712" transform="matrix(0.248867,0,0,0.248867,432.4957,299.1544)">
		
			<path id="path1713" sodipodi:type="arc" sodipodi:cx="318.75" sodipodi:cy="301.78571" sodipodi:rx="233.03571" sodipodi:ry="233.03571" fill="#EB5B20" stroke="#0070CA" stroke-width="2" d="
			M-717.87915-1085.12463c0,27.63696-22.40228,50.04309-50.04321,50.04309c-27.63696,0-50.04315-22.40613-50.04315-50.04309
			s22.40619-50.04321,50.04315-50.04321C-740.28143-1135.16785-717.87915-1112.7616-717.87915-1085.12463z"/>
		<rect id="rect1716" x="-771.59521" y="-1127.08435" fill="#FF9769" width="8.05212" height="7.85984"/>
		<rect id="rect1717" x="-734.20703" y="-1089.03699" fill="#FF9769" width="8.05212" height="7.85984"/>
		<rect id="rect1718" x="-772.745" y="-1052.41394" fill="#FF9769" width="8.05212" height="7.85984"/>
		<rect id="rect1719" x="-809.7525" y="-1089.99438" fill="#FF9769" width="8.05604" height="7.85984"/>
		
			<path id="path1720" sodipodi:type="arc" sodipodi:cx="335.71429" sodipodi:cy="307.14282" sodipodi:rx="33.035721" sodipodi:ry="33.035721" d="
			M-761.05133-1085.47388c0,3.91614-3.17456,7.0907-7.09467,7.0907c-3.9162,0-7.09467-3.17456-7.09467-7.0907
			c0-3.92017,3.17847-7.09473,7.09467-7.09473C-764.22589-1092.5686-761.05133-1089.39404-761.05133-1085.47388
			L-761.05133-1085.47388z"/>
		
			<path id="path1721" sodipodi:type="arc" sodipodi:cx="318.75" sodipodi:cy="297.32141" sodipodi:rx="16.964264" sodipodi:ry="16.964294" fill="#FFFFFF" d="
			M-764.50055-1085.47791c0,2.01306-1.63245,3.64551-3.64545,3.64551c-2.00909,0-3.64154-1.63245-3.64154-3.64551l0,0
			c0-2.01294,1.63245-3.64148,3.64154-3.64148C-766.133-1089.11938-764.50055-1087.49084-764.50055-1085.47791
			L-764.50055-1085.47791z"/>
		<rect id="rect1722" x="-771.02234" y="-1117.87854" width="6.13719" height="26.84039"/>
		
			<rect id="rect1723" x="-777.87103" y="-1081.69922" transform="matrix(-0.90626 -0.42272 0.42272 -0.90626 -1023.28723 -2371.72021)" width="6.51653" height="18.59637"/>
	</g>
</g>
</svg>
